HIERARCHY
ROOT Pelvis
{
	OFFSET -0.001795 -0.223333 0.028219
	CHANNELS 6 Xposition Yposition Zposition Zrotation Yrotation Xrotation 
	JOINT Left_hip
	{
		OFFSET 0.069520 -0.091406 -0.006815
		CHANNELS 3 Zrotation Yrotation Xrotation
		JOINT Left_knee
		{
			OFFSET 0.034277 -0.375199 -0.004496
			CHANNELS 3 Zrotation Yrotation Xrotation
			JOINT Left_ankle
			{
				OFFSET -0.013596 -0.397960 -0.043693
				CHANNELS 3 Zrotation Yrotation Xrotation
				JOINT Left_foot
				{
					OFFSET 0.026358 -0.055791 0.119288
					CHANNELS 3 Zrotation Yrotation Xrotation
					End Site
					{
						OFFSET 0.000000 0.000000 0.000000
					}
				}
			}
		}
	}
	JOINT Right_hip
	{
		OFFSET -0.067670 -0.090522 -0.004320
		CHANNELS 3 Zrotation Yrotation Xrotation
		JOINT Right_knee
		{
			OFFSET -0.038290 -0.382569 -0.008850
			CHANNELS 3 Zrotation Yrotation Xrotation
			JOINT Right_ankle
			{
				OFFSET 0.015774 -0.398415 -0.042312
				CHANNELS 3 Zrotation Yrotation Xrotation
				JOINT Right_foot
				{
					OFFSET -0.025372 -0.048144 0.123348
					CHANNELS 3 Zrotation Yrotation Xrotation
					End Site
					{
						OFFSET 0.000000 0.000000 0.000000
					}
				}
			}
		}
	}
	JOINT Spine1
	{
		OFFSET -0.002533 0.108963 -0.026696
		CHANNELS 3 Zrotation Yrotation Xrotation
		JOINT Spine2
		{
			OFFSET 0.005487 0.135180 0.001092
			CHANNELS 3 Zrotation Yrotation Xrotation
			JOINT Spine3
			{
				OFFSET 0.001457 0.052922 0.025425
				CHANNELS 3 Zrotation Yrotation Xrotation
				JOINT Neck
				{
					OFFSET -0.002778 0.213870 -0.042857
					CHANNELS 3 Zrotation Yrotation Xrotation
					JOINT Head
					{
						OFFSET 0.005152 0.064970 0.051349
						CHANNELS 3 Zrotation Yrotation Xrotation
						End Site
						{
							OFFSET 0.000000 0.000000 0.000000
						}
					}
				}
				JOINT Left_collar
				{
					OFFSET 0.078845 0.121749 -0.034090
					CHANNELS 3 Zrotation Yrotation Xrotation
					JOINT Left_shoulder
					{
						OFFSET 0.090977 0.030469 -0.008868
						CHANNELS 3 Zrotation Yrotation Xrotation
						JOINT Left_elbow
						{
							OFFSET 0.259612 -0.012772 -0.027456
							CHANNELS 3 Zrotation Yrotation Xrotation
							JOINT Left_wrist
							{
								OFFSET 0.249234 0.008986 -0.001171
								CHANNELS 3 Zrotation Yrotation Xrotation
								JOINT Left_palm
								{
									OFFSET 0.084042 -0.008162 -0.014945
									CHANNELS 3 Zrotation Yrotation Xrotation
									End Site
									{
										OFFSET 0.000000 0.000000 0.000000
									}
								}
							}
						}
					}
				}
				JOINT Right_collar
				{
					OFFSET -0.081759 0.118833 -0.038615
					CHANNELS 3 Zrotation Yrotation Xrotation
					JOINT Right_shoulder
					{
						OFFSET -0.096012 0.032551 -0.009143
						CHANNELS 3 Zrotation Yrotation Xrotation
						JOINT Right_elbow
						{
							OFFSET -0.253742 -0.013329 -0.021401
							CHANNELS 3 Zrotation Yrotation Xrotation
							JOINT Right_wrist
							{
								OFFSET -0.255298 0.007772 -0.005559
								CHANNELS 3 Zrotation Yrotation Xrotation
								JOINT Right_palm
								{
									OFFSET -0.084622 -0.006117 -0.010315
									CHANNELS 3 Zrotation Yrotation Xrotation
									End Site
									{
										OFFSET 0.000000 0.000000 0.000000
									}
								}
							}
						}
					}
				}
			}
		}
	}
}
MOTION
Frames: 9
Frame Time: 0.016667
0.300651 0.548004 0.147737 -13.080888 7.965238 19.945293 31.349890 39.032497 -78.984192 12.965409 22.206177 104.642830 8.713681 8.330554 -33.837185 -9.861650 13.144033 -18.047720 3.543184 -29.185020 -53.948357 55.673405 -32.002514 51.411839 24.736258 13.305822 -16.891054 -40.652451 -9.090551 -12.760156 -10.397720 6.652659 46.754669 9.936243 -20.415905 -13.294800 6.389126 -9.554600 -4.114043 -13.772261 2.498133 1.161752 18.958509 -7.084534 -8.577400 11.527269 -59.928303 -14.701621 24.691805 -68.182854 -32.001942 -46.755257 -61.584354 87.794754 8.773396 -17.125240 6.045173 0.000000 0.000000 0.000000 0.240511 28.175241 -15.939719 51.943233 5.366969 -0.762868 -149.655243 70.769585 -124.755600 -11.871979 5.667056 -27.438759 0.000000 0.000000 0.000000 
0.309456 0.548469 0.153633 -13.794047 9.253680 19.481705 31.038052 38.528198 -79.437943 12.359329 21.801497 105.176163 9.049520 8.889087 -34.303730 -10.012357 13.153546 -18.169500 4.701721 -30.146002 -54.957527 50.905113 -34.217609 57.337002 23.653690 12.766380 -17.831835 -40.168396 -8.842279 -12.814939 -10.932962 7.334899 47.101315 9.965244 -20.383995 -13.769752 6.049078 -9.611438 -4.028041 -13.607409 2.810748 0.812755 18.929911 -7.381196 -8.242677 13.121671 -59.835308 -15.783118 25.007410 -68.735001 -32.039005 -47.551037 -61.263397 88.477051 7.998284 -16.541048 6.092363 0.000000 0.000000 0.000000 -0.069730 28.035910 -16.536440 53.469662 5.226609 -0.117755 -148.619476 70.803436 -123.342255 -11.288997 5.300267 -28.050577 0.000000 0.000000 0.000000 
0.319244 0.551655 0.159324 -14.462744 10.563877 18.973404 30.556700 37.846279 -79.722290 11.806934 21.445036 105.512436 9.411565 9.403778 -34.591618 -10.073090 13.156195 -18.334497 5.770792 -30.800234 -55.942085 45.551720 -35.562794 63.260921 22.642427 12.061044 -18.569548 -39.648369 -8.532948 -12.683011 -11.515715 8.073884 47.818089 10.234084 -20.372066 -14.270152 5.799658 -9.612637 -4.110310 -13.358284 3.132039 0.380366 19.027639 -7.767869 -7.893460 14.428195 -59.863216 -16.846231 24.718273 -69.241081 -31.477369 -48.818157 -60.668182 89.491508 6.746573 -15.744487 6.423992 0.000000 0.000000 0.000000 -0.242367 28.127823 -17.003557 55.016701 5.187684 0.634474 -147.072372 70.876968 -121.509827 -10.446010 4.934449 -28.827717 0.000000 0.000000 0.000000 
0.330067 0.554864 0.164757 -15.131358 11.984916 18.473640 30.007725 37.083027 -80.065468 11.214840 21.174267 105.855171 9.740526 9.892983 -34.748375 -9.993967 13.124402 -18.436865 6.758147 -30.958267 -57.043003 40.096970 -36.030293 68.968292 21.585564 11.249542 -19.299034 -39.096931 -8.195754 -12.514107 -12.134428 8.654633 48.477894 10.522522 -20.363409 -14.702654 5.649837 -9.683937 -4.204319 -13.049998 3.363288 0.010214 19.173140 -8.225025 -7.433935 15.557830 -59.922974 -17.730818 24.151043 -69.776848 -30.639206 -50.086029 -59.864418 90.424065 5.336050 -14.877676 6.887383 0.000000 0.000000 0.000000 -0.382325 28.323565 -17.387619 56.603703 5.260791 1.488218 -145.534149 71.040001 -119.765366 -9.452686 4.670816 -29.695898 0.000000 0.000000 0.000000 
0.340927 0.555862 0.169976 -15.844109 13.606367 18.031479 29.495794 36.332443 -80.697060 10.487964 21.031803 106.407272 9.975781 10.375340 -34.822495 -9.725272 13.030252 -18.371094 7.658852 -30.426121 -58.390739 35.029221 -35.694988 74.227409 20.369953 10.381405 -20.213209 -38.520287 -7.861161 -12.458314 -12.789906 8.853099 48.656876 10.610107 -20.345257 -14.973837 5.608393 -9.949945 -4.153029 -12.705493 3.403892 -0.153386 19.286188 -8.732587 -6.766998 16.607588 -59.926689 -18.262556 23.657486 -70.420921 -29.871954 -50.932781 -58.932045 90.909653 4.074710 -14.091311 7.346598 0.000000 0.000000 0.000000 -0.591675 28.493965 -17.733303 58.251080 5.456195 2.438916 -144.521957 71.360619 -118.612869 -8.422247 4.605818 -30.576235 0.000000 0.000000 0.000000 
0.352432 0.554530 0.175501 -16.601212 15.375103 17.652565 29.063307 35.522697 -81.484993 9.646843 20.971523 107.120682 10.211264 10.862886 -34.900124 -9.369293 12.910439 -18.319809 8.491115 -29.243671 -59.966782 30.189325 -34.722954 79.254349 19.009718 9.298945 -21.111301 -37.931198 -7.470140 -12.491967 -13.483961 8.779641 48.497135 10.654660 -20.365412 -15.190220 5.595441 -10.353065 -4.061255 -12.357172 3.273936 -0.234902 19.300287 -9.355679 -6.092187 17.448523 -59.839565 -18.582787 22.243822 -71.324860 -28.335648 -51.297756 -57.844807 91.018440 3.018715 -13.210483 7.356281 0.000000 0.000000 0.000000 -0.848401 28.553967 -18.077593 60.022640 5.749152 3.664714 -143.675354 71.802147 -117.668251 -7.358867 4.428581 -31.433735 0.000000 0.000000 0.000000 
0.364322 0.552104 0.181581 -17.401085 17.238361 17.344059 28.750570 34.584915 -82.298691 8.712118 20.946587 107.948067 10.539696 11.368735 -35.065933 -9.027508 12.803548 -18.464857 9.269231 -27.449966 -61.753754 25.375658 -33.197647 84.307892 17.517267 7.853699 -21.785065 -37.342476 -6.964070 -12.590358 -14.213229 8.547206 48.139420 10.814464 -20.469786 -15.458633 5.531977 -10.835813 -4.033383 -12.038095 2.994775 -0.358580 19.151249 -10.157681 -5.607585 17.952015 -59.624371 -18.833153 18.633589 -72.598846 -24.906715 -51.128960 -56.571693 90.830765 2.209904 -12.073429 6.470059 0.000000 0.000000 0.000000 -1.128888 28.418509 -18.455805 61.984081 6.100174 5.343628 -142.620956 72.318268 -116.534485 -6.258562 3.827042 -32.244312 0.000000 0.000000 0.000000 
0.377155 0.549671 0.188287 -18.215689 19.255501 16.995831 28.536583 33.408524 -82.975418 7.836579 20.965456 108.769386 10.957119 11.954374 -35.134987 -8.652390 12.684269 -18.614321 9.815946 -25.216404 -63.408318 20.858017 -31.208086 89.001358 16.039833 6.214109 -22.161348 -36.753872 -6.447377 -12.694297 -14.954906 8.208502 47.710262 11.001624 -20.593309 -15.723815 5.483478 -11.354889 -4.065025 -11.774326 2.747400 -0.540024 18.976265 -10.898448 -5.284125 18.495058 -59.386772 -19.149263 12.836845 -73.816803 -19.503622 -50.570644 -55.245266 90.420700 1.403617 -10.865471 5.409890 0.000000 0.000000 0.000000 -1.451263 28.261604 -18.830687 64.084656 6.402223 7.095580 -140.987335 72.913063 -114.861786 -4.991279 3.136811 -32.904499 0.000000 0.000000 0.000000 
0.390533 0.548659 0.195190 -19.026266 21.483278 16.494747 28.394695 31.883244 -83.355026 7.173151 21.029263 109.464569 11.463786 12.678482 -34.920387 -8.197266 12.525051 -18.577021 10.003252 -22.727346 -64.627380 16.826456 -28.913975 93.022820 14.712893 4.554236 -22.184229 -36.163563 -6.025662 -12.746912 -15.687946 7.819590 47.334396 11.127207 -20.671923 -15.929561 5.515704 -11.866941 -4.153038 -11.592795 2.712642 -0.792974 18.915627 -11.339866 -5.097838 19.454157 -59.228741 -19.666088 5.334925 -74.541084 -12.517334 -49.750595 -53.996296 89.845093 0.389029 -9.756785 4.887030 0.000000 0.000000 0.000000 -1.837283 28.257374 -19.168238 66.263618 6.577774 8.532386 -138.338226 73.575264 -112.235443 -3.437372 2.690579 -33.300591 0.000000 0.000000 0.000000 
